<?xml version="1.0" encoding="UTF-8"?>
<svg id="Camada_1" data-name="Camada 1" xmlns="http://www.w3.org/2000/svg" viewBox="0 0 1024 1042.85">
  <path d="M449.28,440.35l51.1-25.69c-55.41-114.67,16.88-251.69,153.46-194.87,4.95-6.9-15.26-49.35-20.95-57.34-13.15-18.48-48.36-30.96-46.14-52.65,3.56-34.81,46.1-12.92,62.22,1.4,19.26,17.12,23.57,33.23,36.1,53.33,1.54,2.46-.83,5.4,5.53,4.13,25-34.62,66.59-55.9,106.34-69.55,22.85-7.85,95.55-34.68,94.97,9.19-.22,16.8-15.23,62.7-23.29,78.48-4.55,8.91-24.14,31.07-23.17,37.56,46.65,30.94,58.22,80.86,54.15,134.31-1.14,15.05-9.15,32.7-9.39,45.14-.09,4.53,11.05,8.59,12.83,19.18,3.66,21.74-2.67,46.14-3.14,66.82-2.43,106.75-7.71,213.27-12.79,319.69-4.22,88.53,12.05,218.04-113.24,228.83-167.34,14.41-355.04-11.12-524.52,0-57.06-5.72-101.86-50.92-110.14-107.25l-19.39-511.64c3.88-21.69,22.78-22.41,41.74-20.59v-234.96C182.35-9.12,391.35-35.01,437.32,127.84c26.84,95.08,4.54,213.89,11.96,312.51ZM404.52,421.19v-231.78c0-10.06-12.79-57.8-17.64-68.68-38.99-87.51-160.46-65.02-174.04,26.79,1.44,4.67,55.18,17.33,65.46,21.06,23.13,8.4,78.92,30.16,70.52,61.05-7.22,26.56-64.66-10.56-80.08-16.33-9.08-3.4-61.54-19.91-65.62-15.91l3.32,67.03c33.18,5.01,131.43,40.21,145.26,70.5,7.54,16.53-2.97,34.53-21.49,31.39-9.59-1.63-48.61-28.61-64.2-35.18-20.09-8.47-41.34-15.04-62.89-18.63v103.9l53.27,29.66c32.57-8.06,73.9-50.26,107.46-43.31,6.7,1.39,38.15,21.27,40.67,18.45ZM839.3,136.7c-49.88,9.32-107.27,37.03-127.88,86.25,15.56-3.11,29.81-9.83,45.26-13.85,11.7-3.04,31.61-2.82,40.96-6.99,16.23-7.23,35-49.11,41.65-65.41ZM585.66,253.04c-60.5,9.18-66.35,78.75-48.44,126.55,2.3,6.14,10.28,23.15,14.51,27.05,3.85,3.56,67.87,36.61,72.02,36.89,30.85-8.15,75.01-49.24,107.68-40.74,17.02,5.55,60.88,38.89,74.83,40.08,23.43,2.01,38.71-46.75,43.1-64.37,11.43-45.91,8.18-105.33-44.36-122.83-39.26-13.08-65.69,13.44-99.77,20.24-38.99,7.77-78.97-29.04-119.56-22.88ZM858.44,465.95c-19.4,11.53-33.88,29.13-58.89,25.38-20-3-66.19-42.43-83.1-41.34-28.67,6.85-68.15,44.24-96.16,41.67-24.14-2.22-71.87-42.83-89.28-41.69-12.87.84-53.61,33.75-69.8,39.1-38.17,12.61-73.74-29.46-109.45-38.88-24.97,6.11-72.55,45.76-95.84,44.76-17.46-.75-84.25-47.01-91.18-41.76,6.49,23.54,2.22,50.45,3.06,75.23,2.68,78.36,9.55,157.86,13.05,236.31,2.15,48.15-1.17,103.08,3.12,150.33,3.92,43.18,34.64,74.73,78.16,78.49,161.25-10.56,339.72,13.67,498.95,0,46.37-3.98,73.09-33.3,78.15-78.5l19.2-449.11Z"/>
</svg>