<?xml version="1.0" encoding="UTF-8"?>
<svg id="Camada_1" data-name="Camada 1" xmlns="http://www.w3.org/2000/svg" viewBox="0 0 1536 1044.18">
  <path d="M1030.44,803.25H502.75v72.52c0,4.17-9.75,28.53-12.84,33.45-30.95,49.11-122.47,49.43-150.16-3.13-17.31-32.85-6.7-71.32-10.3-106.97-21.78-13.87-39.34-22.18-53.25-45.49-32.74-54.85-24.31-200.22-.2-258.91,20.38-49.6,58.52-82.03,112.27-89.85,7.91-119.42,34.24-241.63,166.92-272.82,90.19-21.2,334.79-22.15,425.34.57,128.21,32.18,155.98,152.74,162.37,269.66,60.93,13.39,101.35,48.16,120.56,107.8,16.9,52.47,22.58,177.19,2.07,227.39-12.27,30.03-34.2,46.77-61.86,61.57-3.6,35.7,7.41,74.18-10.26,107-29.25,54.32-126.06,52.45-154.33-1.85-1.33-2.56-8.63-21.04-8.63-22.23v-78.69ZM1085.97,392.82c-.82-61.06-15.57-142.29-66.4-181.98-47.44-37.05-107.08-31.34-163.61-33.89-77.6-3.51-258.31-12.84-324.46,20.91-71.04,36.25-79.31,122.44-87.43,193.39.18,4.07,63.08-7.01,69.5-7.65,147.95-14.8,317.88-18.1,465.93-6.16,35.6,2.87,71.44,8.82,106.47,15.39ZM493.76,574.85c0-42.14-34.16-76.3-76.3-76.3s-76.3,34.16-76.3,76.3,34.16,76.3,76.3,76.3,76.3-34.16,76.3-76.3ZM1193.7,574.3c0-42.02-34.07-76.09-76.09-76.09s-76.09,34.07-76.09,76.09,34.07,76.09,76.09,76.09,76.09-34.07,76.09-76.09ZM571.52,592.56c4.5,4.53,15.64,6.6,22.12,7.19,111.71,10.14,238.67-7.97,352.02-.1,30.43-3.21,31.38-42.79,0-46.42h-355.02c-19.12.53-33.66,24.7-19.12,39.33Z"/>
</svg>