<?xml version="1.0" encoding="UTF-8"?>
<svg id="Camada_1" data-name="Camada 1" xmlns="http://www.w3.org/2000/svg" viewBox="0 0 1127.28 1219.85">
  <path d="M181.49,195.85l547.52.06c14.96,2.14,26.03,9.4,37.35,18.73,45.75,54.18,102.5,99.97,142.68,158.38l2.37,762.32c-7.98,62.44-48,78.07-104.77,81.18-193.34,10.61-396.23-8.29-590.57,0-53.03-.31-96.95-24.54-101.81-81.19,4.39-258.66-5.45-517.89.01-776.48.65-30.55-.65-95.22,10.43-119.43,10.57-23.09,32.52-37.91,56.78-43.58ZM713.55,239.41H186.69c-13.38,0-30.11,26.08-28.16,39.73l.28,507.67c7.82,111.65-10.94,238.75-.31,348.57,2.26,23.37,17.02,34.71,39.88,36.86l641.58-2.1c11.5-1.38,30.03-25.27,30.03-34.91V416.51h-101.83c-8.4,0-28.91-11.2-35.54-17.59-5.84-5.63-19.06-27.14-19.06-34.07v-125.44ZM855.23,375.19l-100.36-106.26v84.12c0,12.47,20.19,22.14,30.99,22.14h69.36Z"/>
  <path d="M690.23,734.99c3.29,2.83,73.95-1.26,86.84.24,26.18,3.05,24.63,36.26,5.22,40.75-15.77,3.64-86.99,2.48-105.77.77-9.32-.85-14.19-1.38-20.39-9.13-10.02-12.54-17.81-66.74-23.11-86.1-2.18-7.97-4.13-21.67-10.93-25.93l-78.18,253.9c-5.98,12.55-22.09,20.21-33.91,10.15-27.78-61.3-49.18-126.34-70.97-190.25l-17.62,36.94c-4.37,5.21-9.53,9.01-16.46,10.1-21.57,3.41-116.68,3.34-138.38,0-23.13-3.57-24.36-33.67-3.05-41.07l125.04-.42c9.63-19.77,19.27-59.96,31.38-76.34,8.76-11.86,29.79-13.13,37.5.75l67.19,173.32,79.59-270.19c4.93-22.52,33.97-23.81,40.83-2.19l45.19,174.7Z"/>
  <path d="M323.94,320.58c.5-2.33,5.37-8.57,7.69-10.02,8.09-5.08,73.57-5.09,83.07-1.04,21.65,9.23,9.43,55.23,12.54,74.54,17.96,2.39,60.56-6.67,72.3,8.86,6.32,8.36,5.97,59.79,4.52,72.35-4.15,35.81-54.94,17.9-79.77,22.06-3.11,19.61,8.51,65.65-10.65,76.42-10.95,6.16-73.65,5.86-82.95-3.44-12.52-12.52-4.41-55.33-6.72-72.98-17.28-2.7-60.64,6.24-72.17-6.05-12.34-13.14-10.6-79.34,2.72-91.41,11.38-10.31,54.26-6.5,69.43-2.88,2.79-19.13-3.79-48.77,0-66.41Z"/>
  <path d="M258.15,960.24l519.01-.78c24.83,3.92,24.37,38.45,0,41.62H263.28c-21.5-2.78-23.08-31.79-5.13-40.85Z"/>
  <path d="M266.77,1057.97c4.86-.34,11.11,2.24,17.18,2.15,135.1-2.11,271.16-.02,405.92,1.39,16.31,7.16,10.76,41.55-10.21,39.83h-413.34c-26.8-1.28-26.15-41.51.44-43.37Z"/>
</svg>