<?xml version="1.0" encoding="UTF-8"?>
<svg id="Camada_2" data-name="Camada 2" xmlns="http://www.w3.org/2000/svg" viewBox="0 0 1572 1350">
  <defs>
    <style>
      .cls-1 {
        fill: #fefefe;
      }
    </style>
  </defs>
  <path class="cls-1" d="M1114.56,192.67c13.62.2,27.4.36,41,1,9.16.43,17.31.77,26,2,8.16,1.16,17.5,3.27,26,5,32.54,6.62,63.88,22.84,89,47,4,3.84,7.27,8.84,12,12,9.09,10.88,16.62,20.82,24,33l10,21c.55,1.51.62,2.93,1,4,1.85,5.28,4.48,10.59,6,16,.55,1.94.62,3.59,1,5,7.22,26.63,8.48,51.97,10.04,79.46-2.48,179.76,3.17,359.82-.04,539.54-.47,26.53-.74,59.25-6,85-4.2,20.57-12.95,41.19-22,60-7.33,12.11-14.89,22.21-24,33l-17,17c-10.47,8.78-19.18,14.96-31,22-13.41,6.19-26.8,12.73-41,17-31.73,9.54-67.92,10.39-101,11-64.23,1.18-128.74-.1-193,0l.14-359.36.8-1.2,114.06-.44,1.82-.14,19.19-140.39-1.01-3.47-131.55.05c-4.06.09-3.23-2.16-3.45-5.05-.8-10.68.03-23.09,0-34-.1-35.59-1.99-71.65,17-103,2.94-4.85,3.71-5.61,8-9,2.97-2.34,7.89-6.16,11-8,27.54-16.28,71-6.1,101.55-9.95,1.4-.18,2.59-.24,3.55-1.45l-.27-120.43c-14.5-2.09-28.93-5.11-43.47-7.03-57.41-7.57-117.1-6.06-169.1,21.58l-9.26,7.28c-4.55,2.95-8.88,6.48-13,10-9.9,8.46-15.68,15.56-23,26-3.43,4.9-5.98,8.8-9,14-38.41,66.22-29,143.56-29,218v1l-125.89.14c-.43.57.04,1.47-.11,1.86-.52,1.31-.93,1.43-1.07,3.38-3.18,43.29,2.58,90.47.01,134.18-.59,1.73,2.32,4.44,3.56,4.44h123.5v361c-57.94-.1-116.08,1.01-174,0-31.49-.55-63.5-1.26-94.22-8.28l-31.78-9.72c-2.44-1.02-5.64-1.9-8-3-2.34-4.22-8.17-5.06-12-7-11.74-5.95-23.05-14.35-33-23,.03-1.98-1.36-2.77-2.48-4.01-3.21-3.56-8.5-8.66-12.52-10.99-28.45-31.94-44.78-69.36-50-112,1.96-6.21.25-13.78,0-20.55-.07-1.92,1.01-4.01-2-3.45-.2-3.3.18-6.69,0-10,2.62-3.57.13-8.58-.04-12.46-.24-5.47.11-11.06.04-16.54-2.19-183.27-.16-367.32,1.08-550.49.02-2.43-1.09-4.28-1.08-4.51,1.12-58.17,13.22-103.89,52-148,5.72-2.35,9.68-8.87,14-13,28.31-27.02,72.98-47.91,112-50,7.9-.42,16.24.15,24-2,.33,0,.67,0,1,0,7.85-.22,15.7.53,23.45-1.05,179.13,2.01,358.45-2.52,537.55.05Z"/>
</svg>