<?xml version="1.0" encoding="UTF-8"?>
<svg id="Camada_2" data-name="Camada 2" xmlns="http://www.w3.org/2000/svg" viewBox="0 0 1572 1350">
  <defs>
    <style>
      .cls-1 {
        fill: #cb5719;
      }
    </style>
  </defs>
  <path class="cls-1" d="M421.09,387.9c12.67-10.37,25.68-15,41.83-17.61l787.26.05c94.11,14.17,87.93,151.28-6,159.82l-780.25.05c-70.22-7.62-96.81-98.14-42.84-142.31Z"/>
  <g>
    <path class="cls-1" d="M1304.23,758.55c-13.04,18.39-34.76,29.63-56.99,32.42H460.92c-72.09-7.16-93.08-101.39-35.91-142.89,14.97-10.87,30.01-14.1,47.89-13.95,258.46,2.22,515.88-1.5,774.33-.58,59.29,5.56,91.38,76.51,56.99,125Z"/>
    <path class="cls-1" d="M1295.31,920.14c45.65,46.72,17.51,127.68-48.1,134.54H462.95c-90.55-12.14-94.94-141.6-3.98-156.85l791.25-.04c15.78,3.21,33.57,10.57,45.08,22.35Z"/>
  </g>
</svg>