<?xml version="1.0" encoding="UTF-8"?>
<svg id="Camada_1" data-name="Camada 1" xmlns="http://www.w3.org/2000/svg" viewBox="0 0 1572 1350">
  <defs>
    <style>
      .cls-1 {
        fill: #fdfdfd;
      }
    </style>
  </defs>
  <path class="cls-1" d="M1270.14,265.08c88.12,79.86,92.44,185.21,94.46,297.04,1.66,91.93.83,185.22-1.09,277-2.14,102.86-3.74,196.54-77.93,276.07-79.69,85.42-179.02,88.13-288.57,90.43-93.96,1.98-188.96,1.98-282.92,0-109.94-2.31-209.15-5.08-289.06-90.94-73.42-78.89-75.27-172.56-77.44-274.56-2.02-94.61-2.01-190.31,0-284.92,2.18-102.66,4.13-197.27,78.93-276.07,80-84.28,177.35-87.11,286.57-89.43,94.28-2.01,189.63-1.98,283.92,0,101.52,2.14,193.76,3.45,273.12,75.38ZM727.05,281.23c-72.57,1.43-162.68-1.5-220.51,48.93-71.71,62.53-65.36,156.86-66.94,244.06-1.49,81.83-1.46,164.1,0,245.92,1.55,87.13-5.05,181.16,65.94,244.06,60.12,53.26,151.16,48.08,226.56,49.44,82.16,1.49,164.77,1.49,246.92,0,74.76-1.35,166.43,3.66,226.07-48.93,59.54-52.51,62.69-119.13,65.43-193.57,3.61-98.15,2.75-197.63,1-295.92-1.56-87.73,5.04-181.99-66.94-245.06-59.46-52.09-151.19-47.1-225.56-48.44-83.7-1.51-168.17-2.13-251.96-.48Z"/>
  <g>
    <path class="cls-1" d="M1117.37,697.67c0,144.6-117.22,261.82-261.82,261.82s-261.82-117.22-261.82-261.82,117.22-261.82,261.82-261.82,261.82,117.22,261.82,261.82ZM1024.67,697.67c0-93.4-75.71-169.11-169.11-169.11s-169.11,75.71-169.11,169.11,75.71,169.11,169.11,169.11,169.11-75.71,169.11-169.11Z"/>
    <circle class="cls-1" cx="1127.19" cy="426.04" r="61.55"/>
  </g>
</svg>