<?xml version="1.0" encoding="UTF-8"?>
<svg id="Camada_1" data-name="Camada 1" xmlns="http://www.w3.org/2000/svg" xmlns:xlink="http://www.w3.org/1999/xlink" viewBox="0 0 1358.06 519.21">
  <defs>
    <style>
      .cls-1 {
        fill: #724f2f;
      }

      .cls-1, .cls-2, .cls-3, .cls-4, .cls-5, .cls-6, .cls-7, .cls-8, .cls-9, .cls-10, .cls-11, .cls-12, .cls-13, .cls-14, .cls-15, .cls-16, .cls-17, .cls-18, .cls-19, .cls-20, .cls-21, .cls-22, .cls-23, .cls-24, .cls-25, .cls-26, .cls-27, .cls-28, .cls-29, .cls-30, .cls-31, .cls-32, .cls-33, .cls-34, .cls-35, .cls-36, .cls-37, .cls-38 {
        fill-rule: evenodd;
      }

      .cls-39 {
        font-size: 9.5px;
      }

      .cls-39, .cls-40, .cls-41, .cls-42 {
        fill: #fff;
      }

      .cls-39, .cls-41, .cls-42 {
        font-family: IstokWeb-Bold, 'Istok Web';
        font-weight: 700;
      }

      .cls-2 {
        fill: #cbc6bb;
      }

      .cls-3 {
        fill: #8c867a;
      }

      .cls-4 {
        fill: #a6451d;
      }

      .cls-5 {
        fill: #d99034;
      }

      .cls-43 {
        clip-path: url(#clippath-4);
      }

      .cls-6 {
        fill: #fea56b;
      }

      .cls-7 {
        fill: #c88767;
      }

      .cls-8 {
        fill: #ad620b;
      }

      .cls-9 {
        fill: #cbc9bc;
      }

      .cls-10 {
        fill: #72726a;
      }

      .cls-11 {
        fill: #e07b4d;
      }

      .cls-12 {
        fill: #b7630d;
      }

      .cls-13 {
        fill: #969286;
      }

      .cls-14 {
        fill: #b0a895;
      }

      .cls-15 {
        fill: #f5ab28;
      }

      .cls-16 {
        fill: #c65b0f;
      }

      .cls-17 {
        fill: #dee7e4;
      }

      .cls-18 {
        fill: #93360d;
      }

      .cls-19 {
        fill: #da9845;
      }

      .cls-20 {
        fill: #794b18;
      }

      .cls-21 {
        fill: #c47523;
      }

      .cls-44 {
        clip-path: url(#clippath-1);
      }

      .cls-45 {
        clip-path: url(#clippath-5);
      }

      .cls-41 {
        font-size: 63.07px;
      }

      .cls-22 {
        fill: #aea18e;
      }

      .cls-46 {
        clip-path: url(#clippath-3);
      }

      .cls-23 {
        fill: #eca275;
      }

      .cls-24 {
        fill: #d67639;
      }

      .cls-25 {
        fill: #ce8631;
      }

      .cls-26 {
        fill: #bfb8a8;
      }

      .cls-47 {
        clip-rule: evenodd;
        fill: none;
      }

      .cls-27 {
        fill: #b84e24;
      }

      .cls-28 {
        fill: #e2975d;
      }

      .cls-48 {
        clip-path: url(#clippath-2);
      }

      .cls-29 {
        fill: #ee8b52;
      }

      .cls-30 {
        fill: #db6a40;
      }

      .cls-31 {
        fill: #ad5c3e;
      }

      .cls-32 {
        fill: #863509;
      }

      .cls-33 {
        fill: #c6761d;
      }

      .cls-34 {
        fill: #fcda43;
      }

      .cls-35 {
        fill: #b04c10;
      }

      .cls-36 {
        fill: #b74c20;
      }

      .cls-49 {
        clip-path: url(#clippath);
      }

      .cls-37 {
        fill: #e4926d;
      }

      .cls-38 {
        fill: #bdbbaf;
      }

      .cls-42 {
        font-size: 18px;
      }
    </style>
    <clipPath id="clippath">
      <path class="cls-47" d="M988.99,228.24c-1.84,3.04-5.33,13.99-7.52,15.82-.47,4.03-12.14,25.76-14.62,29.32-2.17,4.17-6,8.16-9.36,10.91-3.71,7.75-21.24,21.02-28.71,26.52-5.1,3.76-31.46,21.09-39.4,25.54,16.42-.7,55.9-26.89,50.43,9.55-2.69,9.13-8.37,22.52-17.21,28.28-6.38,4.16-8.38,8.82-14.18,6.78,9.9,8.47,27.73,20.59,35.24,21.29,12.07-2.18,32.4-20.95,44.84-33.6.02-.01,5.32-6.68,6.6-8.11l11.92-17.88c3.2-6.3,4.64-6.52,4.69-9.64,3.84-5.4,4.32-15.8,6.42-22.35,5.56-.18,8.97,6.4,10.99,11.48,8.56,21.5-12.37,45.56-17.4,48.15l-.17-26.3c.64,6.67-.11,39.05.31,43.37h.67l-.22-8.19,1.07,11.9c4.53-.76,18.6-9.8,23.85-12.53l6.34-4.23c3.94-.75,10.48-25.78,11.01-30.87-.37-9.74-1.08-7.55-1.63-13.57-.6-12.93-2.87-8-5.67-34.26-2.05-8.71-4.75-23.75-6.58-32.01-3.33-15.07-21.44-39.72-21.75-49.22-.17-5.15,2.01-9.5,1.14-12.22-3.72-2.86-3.91-6.55-9.09-10.12,1.2,6.42,3.94,8.05,2.26,11.64-5.49-3.26-2.64-5.92-8.69-8.02.74,4.96,3.05,6.17,3.11,11.16-5.5-1.37-3.24-4.83-8.27-8.51-1.65,2.63.56,5.6,0,8.74-5.81-3.27-4.86-15.06-14.08-16.01,3.38,10.76,11.13,24.91,3.68,37.17"/>
    </clipPath>
    <clipPath id="clippath-1">
      <path class="cls-47" d="M1039.96,197.62c.99,1.27,5.5,6.33,6.72,7.63,9.75,17.1,14.61,34.93,14.51,34.7.18,2.62,1.74,7.86,2.62,10.71,2.24,20.73-.37,17.96,1.13,30.68.46-.73.38-.45,1.13-2.11.43-.96.68-1.65,1.05-2.79,2.17-6.56,9.29-30.05,15.36-32.72l5.7,7.17c2.55.54,1.65.12,2.04-3.15l.45-.17c.77-6.57,6.67-19.75,13.98-16.34-2.58-7.16-15.99-34.59-20.42-39.83-11.83-13.97-29.02,5.65-44.25,6.21"/>
    </clipPath>
    <clipPath id="clippath-2">
      <path class="cls-47" d="M1068.81,302.78c-2.3-3.79,6.44-40.71,12.73-45.66,5.86,4.26,7.26,21.37,6.91,27.87-2.39,1.63-19.44,18.12-19.64,17.8M1183.55,269.12c-.96-7.14-1.44-19.92,1.94-27.14,9.2,4.36,26.82,29.84,28.14,40.03-6.36-4.56-26.41-13.32-30.08-12.9ZM1100,278.79c-1.91-10.78-12.52-30.69-17.54-35.07-12.78,7.87-24.73,64.04-22.31,72.91-2.22,4.35-5.38,7.97-7.23,13.27-2.09,5.98-2.45,9.21-2.21,11.08.25,1.97,2.32,1.84,3.84,2.49-3.11.96-4.72,5.31-4.57,7.9.08,1.36,1.6,2.12,6.58,1.02-3.01,6.15-1.06,8.88,5.89,7.33-8,10.65,8.45,8.39,12.79,3.88,5.39-2.06,12.25-5.64,19.81-8.33,4.18-1.48,18.7-7.56,23.42-7.84,3.87-12.43-14.13-3.54-14.79-24.16-.22-7.04,3.47-14.19,11.06-19.25,10.78-7.2,41.63-10.18,54.48-10.62,27.61-.95,33.06,5.79,37.67,6.72,4.56,3.43,8.22,7.91,10.75,13.54,4.41,9.81,1.15,17.29,2.05,23.77,1.11-1.43,14.05,1.48,19.66,5.08,9.13,5.86,5.78-3.24,9.99-4.14,2-.43,5.22,3.89,11.08,2.35,2.61-7.01-13.92-32.07-20.48-38.36-11-10.55-13.91-12.23-15.58-14.04-1.75-1.9-2.12-3.94-9.04-16.56-8.68-15.84-21.4-33.9-32.24-40.57-5.37,6.21-5.97,30.81-5.69,36.56-49.33-4.43-58.62,2.66-77.39,11.04Z"/>
    </clipPath>
    <clipPath id="clippath-3">
      <path class="cls-47" d="M1011.48,391.9l42.75-23.82c9.13.49,15.74,13.1,13.76,21.56-5.88,5.32-19.27,14.35-52.19,17.87l-4.31-15.61Z"/>
    </clipPath>
    <clipPath id="clippath-4">
      <path class="cls-47" d="M988.23,368.74l-3.86,12.72c-1.81,7.87-8.58,23.09-3.88,37.95,4.71,14.86,23.06,15.7,32.57,4.28,7.23-8.68,2.21-25.61.96-36.15-.42-4.33-1.56-36.47-1.6-42.04l-.73-12.47c-1.05,3.45-1.49,3.34-4.69,9.64-.95,1.42-17.25,25.03-18.78,26.08"/>
    </clipPath>
    <clipPath id="clippath-5">
      <path class="cls-47" d="M914.43,383.33c-12.75,2.83-49.21-35.14-40.3-40.88,11.15-7.19,58.25-22.58,64.87-15.08,9.94,11.25-9.12,52.53-24.57,55.96"/>
    </clipPath>
  </defs>
  <path d="M806.72,454.77c-.75,0-1.12-.38-1.12-1.13v-17.44c0-.75.38-1.13,1.13-1.13h2.97c.75,0,1.13.37,1.13,1.11v1.08c.58-.98,1.31-1.66,2.21-2.02.89-.36,1.96-.55,3.22-.55,1.96,0,3.58.61,4.86,1.84,1.28,1.23,1.92,3.47,1.92,6.72v10.4c0,.75-.38,1.13-1.13,1.13h-3.01c-.75,0-1.13-.38-1.13-1.13v-9.04c0-2.73-.19-4.44-.56-5.16-.38-.71-1.18-1.07-2.42-1.07-1.31,0-2.3.51-2.96,1.52-.67,1.01-1,3.12-1,6.31v7.43c0,.76-.37,1.13-1.12,1.13h-2.98ZM787.49,444.93c0,2.37.36,4.06,1.1,5.05.74.99,1.8,1.49,3.18,1.49s2.44-.5,3.18-1.49c.74-.99,1.1-2.68,1.1-5.05s-.36-4.06-1.1-5.05c-.74-.99-1.8-1.49-3.18-1.49s-2.44.5-3.18,1.49c-.74.99-1.1,2.68-1.1,5.05ZM781.96,444.93c0-3.19.82-5.69,2.46-7.51,1.64-1.81,4.09-2.72,7.35-2.72s5.7.91,7.35,2.72c1.64,1.82,2.46,4.32,2.46,7.51s-.82,5.69-2.46,7.51c-1.64,1.81-4.09,2.72-7.35,2.72s-5.7-.91-7.35-2.72c-1.64-1.82-2.46-4.32-2.46-7.51Z"/>
  <path d="M838.27,442.36c0-1.13-.36-1.98-1.09-2.57-.72-.59-1.55-.88-2.49-.88s-1.76.28-2.46.85c-.71.57-1.06,1.4-1.06,2.5s.36,1.96,1.09,2.53c.72.57,1.57.86,2.53.86s1.72-.28,2.43-.83c.7-.56,1.06-1.38,1.06-2.46M840.49,457.79c0-.93-.35-1.59-1.06-2.01-.71-.41-1.93-.61-3.65-.61-1.4,0-2.82-.06-4.24-.19-1.1.65-1.65,1.62-1.65,2.9,0,2.4,1.6,3.6,4.8,3.6,1.79,0,3.2-.34,4.24-1.01,1.04-.68,1.55-1.57,1.55-2.68ZM845.83,434.14l-.41,3.49c-1.95,0-3.17.28-3.66.84v.24c.74.94,1.11,1.99,1.11,3.15,0,1.79-.66,3.31-1.98,4.57-1.32,1.27-3.28,1.89-5.89,1.89-1.28,0-2.32-.1-3.14-.3-.66.3-.99.7-.99,1.18,0,.76.4,1.3,1.19,1.6.79.31,2.64.46,5.54.46,5.01,0,7.52,1.71,7.52,5.12,0,2.4-1.04,4.31-3.14,5.72-2.09,1.41-4.62,2.12-7.61,2.12-5.85,0-8.77-1.84-8.77-5.52,0-1.13.33-2.1.99-2.89.65-.79,1.41-1.28,2.28-1.45v-.28c-1.05-.67-1.57-1.68-1.57-3.04s.72-2.52,2.16-3.45v-.26c-2.03-1.01-3.04-2.59-3.04-4.74,0-1.84.7-3.38,2.09-4.61,1.39-1.24,3.54-1.86,6.46-1.86,1.98,0,3.6.38,4.84,1.13h.26c.36-2.36,1.57-3.54,3.63-3.54.81,0,1.52.15,2.14.43Z"/>
  <text class="cls-41" transform="translate(774.58 499.94)"><tspan x="0" y="0">apasfap</tspan></text>
  <text class="cls-42" transform="translate(1049.62 465.21)"><tspan x="0" y="0">A</tspan></text>
  <text class="cls-42" transform="translate(1062.1 465.21)"><tspan x="0" y="0">s</tspan></text>
  <text class="cls-42" transform="translate(1071.16 465.21)"><tspan x="0" y="0">s</tspan></text>
  <text class="cls-42" transform="translate(1080.22 465.21)"><tspan x="0" y="0">o</tspan></text>
  <text class="cls-42" transform="translate(1091.05 465.21)"><tspan x="0" y="0">c</tspan></text>
  <text class="cls-42" transform="translate(1100.82 465.21)"><tspan x="0" y="0">i</tspan></text>
  <text class="cls-42" transform="translate(1105.9 465.21)"><tspan x="0" y="0">a</tspan></text>
  <text class="cls-42" transform="translate(1116 465.21)"><tspan x="0" y="0">ç</tspan></text>
  <text class="cls-42" transform="translate(1125.77 465.21)"><tspan x="0" y="0">ã</tspan></text>
  <text class="cls-42" transform="translate(1135.87 465.21)"><tspan x="0" y="0">o </tspan></text>
  <text class="cls-42" transform="translate(1152.85 465.21)"><tspan x="0" y="0">P</tspan></text>
  <text class="cls-42" transform="translate(1164.75 465.21)"><tspan x="0" y="0">r</tspan></text>
  <text class="cls-42" transform="translate(1171.89 465.21)"><tspan x="0" y="0">o</tspan></text>
  <text class="cls-42" transform="translate(1182.71 465.21)"><tspan x="0" y="0">t</tspan></text>
  <text class="cls-42" transform="translate(1189.96 465.21)"><tspan x="0" y="0">e</tspan></text>
  <text class="cls-42" transform="translate(1200.5 465.21)"><tspan x="0" y="0">t</tspan></text>
  <text class="cls-42" transform="translate(1207.74 465.21)"><tspan x="0" y="0">o</tspan></text>
  <text class="cls-42" transform="translate(1218.57 465.21)"><tspan x="0" y="0">r</tspan></text>
  <text class="cls-42" transform="translate(1225.71 465.21)"><tspan x="0" y="0">a</tspan></text>
  <text class="cls-42" transform="translate(1049.62 483.12)"><tspan x="0" y="0">d</tspan></text>
  <text class="cls-42" transform="translate(1060.32 483.12)"><tspan x="0" y="0">o</tspan></text>
  <text class="cls-42" transform="translate(1071.15 483.12)"><tspan x="0" y="0">s </tspan></text>
  <text class="cls-42" transform="translate(1086.36 483.12)"><tspan x="0" y="0">A</tspan></text>
  <text class="cls-42" transform="translate(1098.84 483.12)"><tspan x="0" y="0">n</tspan></text>
  <text class="cls-42" transform="translate(1109.62 483.12)"><tspan x="0" y="0">i</tspan></text>
  <text class="cls-42" transform="translate(1114.7 483.12)"><tspan x="0" y="0">ma</tspan></text>
  <text class="cls-42" transform="translate(1140.4 483.12)"><tspan x="0" y="0">i</tspan></text>
  <text class="cls-42" transform="translate(1145.48 483.12)"><tspan x="0" y="0">s</tspan></text>
  <text class="cls-42" transform="translate(1049.62 501.04)"><tspan x="0" y="0">S</tspan></text>
  <text class="cls-42" transform="translate(1061.34 501.04)"><tspan x="0" y="0">ã</tspan></text>
  <text class="cls-42" transform="translate(1071.44 501.04)"><tspan x="0" y="0">o </tspan></text>
  <text class="cls-42" transform="translate(1088.42 501.04)"><tspan x="0" y="0">F</tspan></text>
  <text class="cls-42" transform="translate(1098.98 501.04)"><tspan x="0" y="0">r</tspan></text>
  <text class="cls-42" transform="translate(1106.12 501.04)"><tspan x="0" y="0">a</tspan></text>
  <text class="cls-42" transform="translate(1116.22 501.04)"><tspan x="0" y="0">n</tspan></text>
  <text class="cls-42" transform="translate(1126.99 501.04)"><tspan x="0" y="0">c</tspan></text>
  <text class="cls-42" transform="translate(1136.77 501.04)"><tspan x="0" y="0">i</tspan></text>
  <text class="cls-42" transform="translate(1141.85 501.04)"><tspan x="0" y="0">s</tspan></text>
  <text class="cls-42" transform="translate(1150.9 501.04)"><tspan x="0" y="0">c</tspan></text>
  <text class="cls-42" transform="translate(1160.68 501.04)"><tspan x="0" y="0">o </tspan></text>
  <text class="cls-42" transform="translate(1177.66 501.04)"><tspan x="0" y="0">d</tspan></text>
  <text class="cls-42" transform="translate(1188.36 501.04)"><tspan x="0" y="0">e </tspan></text>
  <text class="cls-42" transform="translate(1205.06 501.04)"><tspan x="0" y="0">A</tspan></text>
  <text class="cls-42" transform="translate(1217.54 501.04)"><tspan x="0" y="0">s</tspan></text>
  <text class="cls-42" transform="translate(1226.6 501.04)"><tspan x="0" y="0">s</tspan></text>
  <text class="cls-42" transform="translate(1235.66 501.04)"><tspan x="0" y="0">i</tspan></text>
  <text class="cls-42" transform="translate(1240.74 501.04)"><tspan x="0" y="0">s </tspan></text>
  <text class="cls-42" transform="translate(1255.95 501.04)"><tspan x="0" y="0">d</tspan></text>
  <text class="cls-42" transform="translate(1266.66 501.04)"><tspan x="0" y="0">e </tspan></text>
  <text class="cls-42" transform="translate(1283.35 501.04)"><tspan x="0" y="0">P</tspan></text>
  <text class="cls-42" transform="translate(1295.26 501.04)"><tspan x="0" y="0">a</tspan></text>
  <text class="cls-42" transform="translate(1305.35 501.04)"><tspan x="0" y="0">u</tspan></text>
  <text class="cls-42" transform="translate(1316.08 501.04)"><tspan x="0" y="0">l</tspan></text>
  <text class="cls-42" transform="translate(1321.15 501.04)"><tspan x="0" y="0">í</tspan></text>
  <text class="cls-42" transform="translate(1326.23 501.04)"><tspan x="0" y="0">n</tspan></text>
  <text class="cls-42" transform="translate(1337.01 501.04)"><tspan x="0" y="0">i</tspan></text>
  <text class="cls-42" transform="translate(1342.09 501.04)"><tspan x="0" y="0">a</tspan></text>
  <text class="cls-42" transform="translate(1352.19 501.04)"><tspan x="0" y="0">.</tspan></text>
  <text class="cls-39" transform="translate(1003.5 496.01)"><tspan x="0" y="0">T</tspan></text>
  <text class="cls-39" transform="translate(1009.28 496.01)"><tspan x="0" y="0">M</tspan></text>
  <rect class="cls-40" x="1037.88" y="434.34" width="4.08" height="84.05"/>
  <path class="cls-27" d="M1066.72,145.03c30.21-59.49,60.42-89.23,120.83-89.23,66.7,0,120.83,53.3,120.83,118.97,0,49.07-20.55,98.13-53.19,147.2-33.06,49.72-303.39,105.71-370.16,9.99-36.55-52.4-59.99-104.79-59.99-157.19,0-65.67,54.13-118.97,120.83-118.97,60.42,0,90.63,29.74,120.83,89.23"/>
  <path class="cls-21" d="M979.64,405.9c1.66-1.61-.45-3.11.06-5.33.71-3.12,1.58-4.06,2.05-7.68l-2.05,4.09c-1.06,1.57-1.28,1.55-2.97,2.53-2.53,1.46-17.37,4.86-13.92,6.59,1.54.78,9.34.15,16.83-.2"/>
  <path class="cls-4" d="M951,397.65c4.85,4.68,7.37,6.5,11.52,9.09.73.19,1.86-.11,2.65-.32,1.16-.31,9.53-5.74,11.56-6.91,1.68-.97,3.65-1.98,4.71-3.55l.3-3.06,2.62-11.43c-6.96-19.8-17.94,8.16-33.37,16.19"/>
  <path class="cls-32" d="M985.54,369.66c-1.86,2.76-2.56,2.71-4.48,5.43-2.75,3.88-2.54,2.96-2.5,7.87l5.82-1.49,4.13-12.81-2.96,1.01Z"/>
  <path class="cls-33" d="M1012.01,407.84c1.2-.14,51-.39,51-.37.29-.19,20.3-33.59,20.66-34.72.13-.4-7.43-8.49-8.6-8.97-20.98-11.46-.51,3.06-18.94-14.21-.27.5-3.4-.06-5.38,2.43-5.31,6.64-48.35,53.53-38.74,55.84"/>
  <path class="cls-25" d="M988.99,228.24c-1.84,3.04-5.33,13.99-7.52,15.82-.47,4.03-12.14,25.76-14.62,29.32-2.17,4.17-6,8.16-9.36,10.91-3.71,7.75-21.24,21.02-28.71,26.52-5.1,3.76-31.46,21.09-39.4,25.54,16.42-.7,55.9-26.89,50.43,9.55-2.69,9.13-8.37,22.52-17.21,28.28-6.38,4.16-8.38,8.82-14.18,6.78,9.9,8.47,27.73,20.59,35.24,21.29,12.07-2.18,32.4-20.95,44.84-33.6.02-.01,5.32-6.68,6.6-8.11l11.92-17.88c3.2-6.3,4.64-6.52,4.69-9.64,3.84-5.4,4.32-15.8,6.42-22.35,5.56-.18,8.97,6.4,10.99,11.48,8.56,21.5-12.37,45.56-17.4,48.15l-.17-26.3c.64,6.67-.11,39.05.31,43.37h.67l-.22-8.19,1.07,11.9c4.53-.76,18.6-9.8,23.85-12.53l6.34-4.23c3.94-.75,10.48-25.78,11.01-30.87-.37-9.74-1.08-7.55-1.63-13.57-.6-12.93-2.87-8-5.67-34.26-2.05-8.71-4.75-23.75-6.58-32.01-3.33-15.07-21.44-39.72-21.75-49.22-.17-5.15,2.01-9.5,1.14-12.22-3.72-2.86-3.91-6.55-9.09-10.12,1.2,6.42,3.94,8.05,2.26,11.64-5.49-3.26-2.64-5.92-8.69-8.02.74,4.96,3.05,6.17,3.11,11.16-5.5-1.37-3.24-4.83-8.27-8.51-1.65,2.63.56,5.6,0,8.74-5.81-3.27-4.86-15.06-14.08-16.01,3.38,10.76,11.13,24.91,3.68,37.17"/>
  <g class="cls-49">
    <path class="cls-5" d="M958.28,382.11c-33.2,11.21-74.54-49.68-61.98-64.85,15.72-18.99,113.27-79.27,124.59-71.31,16.46,11.57-29.41,124.96-62.61,136.16"/>
    <path class="cls-33" d="M969.34,179.92l37.74,1.32,30.22,7.65c-12.91,7.64-25.84,20.88-34.32,37.77-9.89,19.71-14.34,30.21-35.59,45.89l1.95-92.64Z"/>
  </g>
  <path class="cls-10" d="M1086.18,377.68c3.33,5.92,6.97,9.54,10.53,14.42,3.57,4.89,7.83,10.42,10.41,15.38l40.88-.28,43.29.18c-1.46-4.44-1.81-5.59-3.95-11.56-9.89,3.13-20.88,2.76-31.69,1.63-21.71-5.72-32.01-6.77-53.15-15.58-1.23-.77-17.82-9.73-18.89-9.29-.2.08.79,2.01,2.57,5.08"/>
  <path class="cls-3" d="M1219.55,335.74c.32,8.41,1.37,16.24-5.33,20.48-2.47,1.47-5,2.81-7.96,3.97-7.34,2.87-13.17,3.23-21.98,2.25-.87,11.65-17.86,14.43-21.49,2.77-7.45,4.47-16.71,8.72-27.52,4.91-10.87-3.82-17.88-13.01-17.29-22.83-4.72.28-19.73,6.33-23.91,7.82-7.56,2.68-13.43,6.44-18.82,8.49,11.88,20.53,69.58,39.9,101.24,35.38,28.83-4.11,51.46-40.33,64.65-58.71-1.98-3.19,0,.97-5.05-.83l-16.55-3.7Z"/>
  <path class="cls-21" d="M1039.96,197.62c.99,1.27,5.5,6.33,6.72,7.63,9.75,17.1,14.61,34.93,14.51,34.7.18,2.62,1.74,7.86,2.62,10.71,2.24,20.73-.37,17.96,1.13,30.68.46-.73.38-.45,1.13-2.11.43-.96.68-1.65,1.05-2.79,2.17-6.56,9.29-30.05,15.36-32.72l5.7,7.17c2.55.54,1.65.12,2.04-3.15l.45-.17c.77-6.57,6.67-19.75,13.98-16.34-2.58-7.16-15.99-34.59-20.42-39.83-11.83-13.97-29.02,5.65-44.25,6.21"/>
  <g class="cls-44">
    <path class="cls-19" d="M1044.27,206.36c11.94,15.09,9.84,21.44,16.51,36.9,3.7-2.07,7.99-8.21,9.79-12.25,3.83-8.63,4.55-16.03,1.26-21.02-5.13-7.77-27.73-9.48-27.56-3.62"/>
  </g>
  <path class="cls-33" d="M1021.76,225.25c18.08,24.33,29.11,103.86,30.8,105.74l8.41-9.28c.85-1.32,4.17-28.6,3.53-31.08l-11.88-40.71c-2.77-10.85-4.07-17.54-8.89-27.37l-1.25-2.62c-2.46,4.43-12.34,3.97-20.72,5.32"/>
  <path class="cls-8" d="M1020.07,202.18c-1.3,4.76-4.58,14.76,1.85,23.28,4.49.05,19.2-.32,21.19-4.22,4.82,9.83,6.75,17.83,9.52,28.68l10.39,46.26c4-3.41,4.85-30.18,3.28-34.04-1.92-17.38-14.24-56.54-26.33-64.52-3.12.1-9.08,0-11.85.37-4.59.61-6.27,1.58-8.04,4.19"/>
  <path class="cls-28" d="M1027.07,223.37c6.63.76,10.57-.87,14.64-3-1.94-6.18-6.54-8.25-11.41-9.19-2.38,2.22-5.11,7.12-3.23,12.2"/>
  <path class="cls-12" d="M956.94,285.31c3.35-2.75,7.74-7.76,9.9-11.93,6.94-7.93,31.38-52.07,24.53-63.54-52.04-9.01-36.05,62.3-34.43,75.47"/>
  <path class="cls-32" d="M1011.7,333.02l1.19,37.5c5.04-2.58,24.78-26.87,16.22-48.37-2.02-5.08-5.44-11.66-10.99-11.48-2.1,6.55-4.46,16.86-6.42,22.35"/>
  <path class="cls-19" d="M1087.07,249.36c-4.37,13.8,4.06,11.83,12.21,31.06,22.21-5.91,16.04-7.01,23.24-9.7-6.8-12.91-11.48-26.82-17.89-39.49-9.42-4.39-15.49,11.58-17.56,18.13"/>
  <path class="cls-7" d="M1065.02,306.98c11.3-8.31,19.15-14.38,29.42-24.06.36,2.52-7.68-24.55-11.78-32.28-1.35,2.78-4.24,4.64-8.59,14.97-6.55,15.53-5.77,35.83-9.05,41.37"/>
  <path class="cls-7" d="M1219.27,284.48c-13.57-3.57-23.09-6.33-36.2-11.55.6,2.48-1.89-25.65-.92-34.35,2.27,2.09,5.65,2.76,13.49,10.76,11.8,12.04,18.55,31.2,23.63,35.15"/>
  <path class="cls-23" d="M1073.3,299.88c5.77-5.06,20.4-14.53,17.23-23.33.04,1.82-2.89-9.85-8.47-15.58-4.89,11.79-10.08,38.04-8.76,38.91"/>
  <path class="cls-23" d="M1216.92,284.62c-7.49-1.69-27.89-3-29.31-12.25-.58-1.93-1.37-16.15,0-23.85,9.92,8.02,32.46,32.16,29.32,36.1"/>
  <path class="cls-26" d="M1068.81,302.78c-2.3-3.79,6.44-40.71,12.73-45.66,5.86,4.26,7.26,21.37,6.91,27.87-2.39,1.63-19.44,18.12-19.64,17.8M1183.55,269.12c-.96-7.14-1.44-19.92,1.94-27.14,9.2,4.36,26.82,29.84,28.14,40.03-6.36-4.56-26.41-13.32-30.08-12.9ZM1100,278.79c-1.91-10.78-12.52-30.69-17.54-35.07-12.78,7.87-24.73,64.04-22.31,72.91-2.22,4.35-5.38,7.97-7.23,13.27-2.09,5.98-2.45,9.21-2.21,11.08.25,1.97,2.32,1.84,3.84,2.49-3.11.96-4.72,5.31-4.57,7.9.08,1.36,1.6,2.12,6.58,1.02-3.01,6.15-1.06,8.88,5.89,7.33-8,10.65,8.45,8.39,12.79,3.88,5.39-2.06,12.25-5.64,19.81-8.33,4.18-1.48,18.7-7.56,23.42-7.84,3.87-12.43-14.13-3.54-14.79-24.16-.22-7.04,3.47-14.19,11.06-19.25,10.78-7.2,41.63-10.18,54.48-10.62,27.61-.95,33.06,5.79,37.67,6.72,4.56,3.43,8.22,7.91,10.75,13.54,4.41,9.81,1.15,17.29,2.05,23.77,1.11-1.43,14.05,1.48,19.66,5.08,9.13,5.86,5.78-3.24,9.99-4.14,2-.43,5.22,3.89,11.08,2.35,2.61-7.01-13.92-32.07-20.48-38.36-11-10.55-13.91-12.23-15.58-14.04-1.75-1.9-2.12-3.94-9.04-16.56-8.68-15.84-21.4-33.9-32.24-40.57-5.37,6.21-5.97,30.81-5.69,36.56-49.33-4.43-58.62,2.66-77.39,11.04Z"/>
  <g class="cls-48">
    <path class="cls-22" d="M1193.86,263.45c3.88,2.33,7.63,8.18,11.91,12.68.97,1.02,3.56,2.94,4.43,3.54,1.05.72,1.76.7,2.21,1.04.53.41.74.49,1.21,1.27,1.08.71,9.56,4.71,15.16,10.18,26.05,25.45,81.02,58.88,42.58,68.67l-76.28.94c7.34-29.42,9.01-61.29-1.21-98.33"/>
  </g>
  <path class="cls-9" d="M1131.45,331.74c7.63,1.65,26.04.51,31.37.79-2.09,2.07,10,8.99,16.71,2.91,3.36-1.58,7.72-2.16,6.46-5.54,6.69-1.21,11.03-2.2,18.27-1.25,7.16.94,9.39,4.88,15.33,7.82,1.61-3.89,2.46-12.99-1.95-22.8-2.53-5.64-6.19-10.12-10.75-13.54-4.61-.93-10.06-7.68-37.67-6.72-12.84.44-44.77,3.15-55.55,10.35-7.9,5.47-12.57,15.45-10.77,24.41,1.37,6.83,4.9,13.09,14.17,17.57,4.13.23,9.55-4.83,14.39-13.99"/>
  <path class="cls-13" d="M1083.67,372.76c-1.13,8.54-1.65,26.61-6.34,31.69l1.23,2.94,30.23.08c-.7-1.34-24.93-34.59-25.01-34.64-.16-.11-.04-.03-.11-.07"/>
  <path class="cls-20" d="M1016.69,249.01c-4.9-1.55-9.05,4.81-10.75,12.34-1.31,5.85-1.36,14.06,3.68,16.62,7.1,3.6,9.61-4.65,10.26-10.06,1.01-8.31.66-17.67-3.2-18.89"/>
  <path class="cls-20" d="M991.54,247.45c-5.74-3.94-16.45,14.98-11.29,19.87,7.32,6.94,17.03-15.93,11.29-19.87"/>
  <path class="cls-38" d="M1078.56,407.39c4.9-4.32,5.09-34.5,5.11-34.63-9.99,10.85-27.29,25.13-41,34.81.63.63,32.3-.18,35.89-.18"/>
  <path class="cls-15" d="M1011.48,391.9l42.75-23.82c9.13.49,15.74,13.1,13.76,21.56-5.88,5.32-19.27,14.35-52.19,17.87l-4.31-15.61Z"/>
  <g class="cls-46">
    <path class="cls-34" d="M1065.07,358.91c21.76,0,39.4,11.28,39.4,25.2s-17.64,25.2-39.4,25.2-39.4-11.28-39.4-25.2,17.64-25.2,39.4-25.2"/>
  </g>
  <path class="cls-6" d="M988.23,368.74l-3.86,12.72c-1.81,7.87-8.58,23.09-3.88,37.95,4.71,14.86,23.06,15.7,32.57,4.28,7.23-8.68,2.21-25.61.96-36.15-.42-4.33-1.56-36.47-1.6-42.04l-.73-12.47c-1.05,3.45-1.49,3.34-4.69,9.64-.95,1.42-17.25,25.03-18.78,26.08"/>
  <g class="cls-43">
    <path class="cls-29" d="M944.04,399.22c.76-13.91,56.29-44.79,55.73-33.51l-3.51,71.49c-.88,17.86-53.15-21.13-52.23-37.98"/>
    <path class="cls-24" d="M965.99,328.44c9.86-9.83,62.62,2.04,57.88,12.3-5.93,12.84-38.58,53.15-44.34,52.72-17.83-1.32-25.49-53.1-13.54-65.02"/>
  </g>
  <path class="cls-11" d="M1162.73,365.43c2.66,10.86,20.29,11.66,21.54-2.98-2.48-4.52-20.05-3.62-21.54,2.98"/>
  <path class="cls-31" d="M1164.59,361.82l-2.34,3.77c11.9-7.55,13.94-3.98,24.04-2.95-4.06-3.52-9.13-8.41-12.53-11.93-1.01,1.09-8.69,9.69-9.16,11.1"/>
  <path class="cls-17" d="M1176.08,342.96c-4.8,1.48-15.01-2-11.79-10.1-6.07-4.41-25.92-3.28-32.85-1.12-15.49,4.84-16.15,14.22-12.76,22.95,23.4,24.38,52.48-10.63,58.45-5.88,9.46,5.33,20.95,7.15,31.25,5.95,5.47-.64,8.38-2.83,12.55-5.61,8.59-11.57-7.91-19.92-16.67-20.49-7.39-1.59-15.17.71-21.86,1.93-4.28.91.34,10.33-6.32,12.38"/>
  <path class="cls-37" d="M1176.08,342.96c3.46-1.06,6.13-3.74,8.09-6.67,4.94-7.37-6.47-7.79-12.01-6.78-4.4.8-6.82,2.05-7.97,3.47-2.65,3.28,2.06,9.39,5.31,10.38,2.05.63,4.55.22,6.58-.41"/>
  <path class="cls-2" d="M1118.69,354.69c1.1,3.14,2.68,6.43,5.99,9.23,3.28,2.77,7.33,5.05,10.58,6.2,13.97,5.67,31.66-2.91,38.45-18.62,2.78,4.6,6.21,7.24,10.56,10.95,8.81.97,14.64.61,21.98-2.25,2.97-1.16,5.5-2.49,7.96-3.97,4.19-2.5,6.63-5.79,7.21-7.77-17.29,11.54-42.2,4.49-47.9-2.8-7.53,10.34-32.81,20.44-54.84,9.04"/>
  <path class="cls-32" d="M966.21,274.5c5.15-4.56,16.76-27.99,19.04-33.76-1.19-3.8-10.7-11.6-16.27-12.29-7.91-.99-7.41,38.21-2.77,46.05"/>
  <path class="cls-13" d="M1168.01,375.69c15.37,0,30.56,2.22,30.56,7.14s-15.51,13.72-30.88,13.72-33.93-5.43-33.93-10.35,18.88-10.51,34.25-10.51"/>
  <path class="cls-35" d="M914.43,383.33c-12.75,2.83-49.21-35.14-40.3-40.88,11.15-7.19,58.25-22.58,64.87-15.08,9.94,11.25-9.12,52.53-24.57,55.96"/>
  <g class="cls-45">
    <path class="cls-36" d="M925.1,313.38c15.34-3.78,32.5,20.3,35.96,39.26,3.46,18.96-6.18,37.39-21.52,41.17-15.34,3.78-30.58-8.52-34.03-27.48-3.46-18.96,4.25-49.17,19.59-52.95"/>
  </g>
  <path class="cls-16" d="M1027.3,391.34c2.79,0,5.05,2.02,5.05,4.51s-2.26,4.51-5.05,4.51-5.05-2.02-5.05-4.51,2.26-4.51,5.05-4.51"/>
  <path class="cls-16" d="M1047.33,382.02c2.79,0,5.05,2.02,5.05,4.51s-2.26,4.51-5.05,4.51-5.05-2.02-5.05-4.51,2.26-4.51,5.05-4.51"/>
  <path class="cls-18" d="M883.2,350.03c2-2.98,7.32-2.78,13.8,5.76,6.48,8.54,7.26,13.86,5.89,16.24-1.37,2.39-5.01-.83-10.45-6.91-5.44-6.08-11.25-12.11-9.24-15.09"/>
  <path class="cls-30" d="M922.97,331.97c6.01-2.35,12.66.29,14.84,5.88,2.18,5.6-.92,12.03-6.94,14.38-6.01,2.35-12.66-.29-14.84-5.88-2.18-5.6.92-12.03,6.94-14.38"/>
  <path class="cls-18" d="M924.81,341.66c3.54.63,5.51,5.57.33,14.95-5.18,9.38-9.73,12.25-12.46,11.97-2.73-.28-1.27-4.92,2.08-12.35,3.35-7.43,6.52-15.19,10.05-14.57"/>
  <path class="cls-16" d="M1073.49,377.57c.75,2.32-5.09,6-7.05,6.63-1.96.64-4.16-.73-4.91-3.05-.75-2.32.22-4.72,2.18-5.35,1.96-.64,9.03-.54,9.78,1.78"/>
  <path class="cls-1" d="M1122.44,315.25c3.43,0,6.22,3.02,6.22,6.75s-2.78,6.75-6.22,6.75-6.22-3.02-6.22-6.75,2.78-6.75,6.22-6.75"/>
  <path class="cls-1" d="M1193.99,311.35c3.43,0,6.22,3.02,6.22,6.75s-2.78,6.75-6.22,6.75-6.22-3.02-6.22-6.75,2.78-6.75,6.22-6.75"/>
  <path class="cls-14" d="M1147.13,282.44c13.25-1.98,28.38,1.65,28.51,2.43.13.78-13.51-.96-26.76,1.02-13.25,1.98-14.4,3.55-15.23,2.93-.64-.97.23-4.4,13.48-6.39"/>
  <path class="cls-14" d="M1138.62,276.81c9.1-2.89,20.27-1.35,20.46-.72.2.63-9.67.5-18.76,3.39-9.1,2.89-9.7,4.29-10.37,3.86-.58-.74-.43-3.64,8.67-6.53"/>
</svg>