<?xml version="1.0" encoding="UTF-8"?>
<svg id="Camada_1" data-name="Camada 1" xmlns="http://www.w3.org/2000/svg" viewBox="0 0 1024 1042.85">
  <path d="M753.43,228.1c-9.8,9.37-23.18,8.32-34.76,13.22l-1.36,55.93c62.2,2.28,114.08,54.76,120.67,116.1l.18,544.81c-5.43,47.16-44.74,79.62-91.32,82-153.77-6.81-314.77,8.72-467.69-.09-51.45-2.97-86.69-26.72-97.28-78.92l3.16-547.79c5.77-61.34,55.14-111.77,117.42-116.24l-.17-55.27c-21.77-3.11-39.4-12.53-42.75-36.16-3.25-22.88-3.04-93.92,0-117.08,4.6-35.04,37.26-64.67,72.5-66.78,115.64,6.76,241.6-9.1,356.01-.14,28.05,2.19,52.46,13.81,65.53,39.7,13.23,26.2,13.99,113.88,10.27,144.65-.85,7.04-5.49,17.38-10.41,22.08ZM339.74,198.2V69.75c-9.45-12.01-37.14,12.66-37.14,21.67v106.78h37.14ZM417.11,198.2v-125.35c0-1.17,5.76-4.49-1.92-7.37l-29.04-.39-3.1,133.12,34.06-.02ZM460.44,69.75v128.44l30.97.02,1.75-130.22c-3.5-4.93-30.67-4.91-32.72,1.76ZM568.77,65.11l-29.09.48c-3.62.87-4.96,7.58-4.96,10.35v122.25c11.06-1.39,25.88,4.17,34.05-4.64V65.11ZM612.1,65.11v133.09h27.86V65.11h-27.86ZM683.27,198.21l32.08-.45c4.02-1.04,4.43-3.77,5.08-7.3,2.62-14.16,1.76-80.25-.75-95.21-2.58-15.37-14.37-31.66-31.51-30.02l-4.08,4.39-.82,128.59ZM345.93,241.53v55.71h328.07v-55.71h-328.07ZM292.5,344.4c-44.81,11.8-69.81,53.89-63.75,99.42l4.64,4.64,560.88-4.64c4.97-44.16-19.67-88.29-63.74-99.42h-438.02ZM225.07,492.22v383.78h569.63v-383.78H225.07ZM794.71,922.43H225.22c-2.54,38.77,8.52,68.18,50.94,71.32,153.62,11.37,321.4-8.55,476.5-.4,35.12-7.27,45.75-38.28,42.05-70.92Z"/>
  <path d="M578.05,619.12h85.11c8.42,0,13.48,15.94,14.14,23.02,1.83,19.64,2.23,67.74-.41,86.65-.84,6.02-6.91,20.32-13.73,20.32h-83.57l-4.64,4.64v80.47c0,7.9-16.31,13.25-23.14,14.01-18.65,2.07-65.17,2.16-83.7-.02-38.2-4.48-19.19-61.9-21.48-88.4-.27-3.17-4.4-10.71-6.3-10.71h-80.47c-5.19,0-13.26-16.92-14-23.14-2.23-18.78-2.19-67.97.01-86.79,4.61-39.46,75.23-8.03,99.1-24.7v-74.28c0-5.2,10.88-17.93,17.69-19.45,11.1-2.48,87.07-2.28,96.99.72,6.83,2.07,18.41,15.28,18.41,21.83v75.83Z"/>
</svg>