<?xml version="1.0" encoding="UTF-8"?>
<svg id="Camada_1" data-name="Camada 1" xmlns="http://www.w3.org/2000/svg" viewBox="0 0 1536 1044.18">
  <path d="M509.85,241.22c191.78-.26,383.72,1.76,575.54.57,8.68-.05,16.13-3.25,24.04-3.31,50.62-.36,101-.27,151.41,3.81,19.59,5.92,19.09,25.49,16.63,42.69-36.27,92.47-53.29,204.33-91.15,294.74-20.64,49.28-64.92,86.42-119.19,90.47l-472.59-.09c3.07,19.44-22.63,67.03-13.72,82.07,1.57,2.65,6.72,4.69,9.82,5.36,92.83,6.45,185.95,2.48,279,3.59,73.25.87,148.77-.69,221.77.65,42.41.78,30.17,69.04-16.77,57.24,1.26,4.97,8.87,5.14,13.69,9.06,71.15,57.77,30.18,171.94-62.99,169.36-86.45-2.39-126.34-105.11-63.17-164.79,3.74-3.54,22.44-11.86,18.23-16.69h-291.66s32.92,35.43,32.92,35.43c33.07,58.35.03,135.69-68.21,143.52-112.26,12.9-151.39-119.15-61.97-178.92-37.54-4.06-75.4-32.47-69.15-73.75,5.71-37.74,27.87-79,23.25-118.91l-105.97-443.35-164.74-39.51c-29.24-12.01-25.97-49.11,5.08-53.86l189.1,45.04c29.16,15.22,27.2,81.58,40.83,109.58ZM1217.41,293.32l-221.49,3.35-9.45,106.03,200.16-3.44,30.77-105.95ZM725.16,296.34h-200.55l24.14,105.02c5.21-2.56,11.42,1.34,13.84,1.34h171.68l-9.12-106.35ZM940.9,296.34h-161.05l6.08,106.35h145.85l9.12-106.35ZM597.54,615.4h151.93l-12.48-157.68-104.32-3.48-71.59.13,36.45,161.03ZM804.17,615.4h112.43l12.18-158.02c-45.1-1.94-91.09,1.27-136.77,0l12.17,158.02ZM971.29,615.4h104.83c3.19,0,26.25-12.12,30.38-15.2,40.54-30.26,44.85-99.92,62.34-144.28l-187.01,1.31-10.54,158.18ZM682.14,900.42c0-24.22-19.63-43.85-43.85-43.85s-43.85,19.63-43.85,43.85,19.63,43.85,43.85,43.85,43.85-19.63,43.85-43.85ZM1071.66,901.56c0-24.13-19.56-43.7-43.7-43.7s-43.7,19.56-43.7,43.7,19.56,43.7,43.7,43.7,43.7-19.56,43.7-43.7Z"/>
</svg>