<?xml version="1.0" encoding="UTF-8"?>
<svg id="Camada_1" data-name="Camada 1" xmlns="http://www.w3.org/2000/svg" viewBox="0 0 1018.65 582.12">
  <defs>
    <style>
      .cls-1 {
        fill: #cb5719;
      }
    </style>
  </defs>
  <g>
    <path class="cls-1" d="M993.3,397.17c8.12,6.67,4.7,18.49,12.07,24.65,4.7,3.93,8.43,4.26,11.63,11.14,5.07,10.9-2.11,24.21-13.98,25.8-6.47.87-25.84-3.09-32.1-5.72-5.08-2.13-11.36-8.17-12.24-13.75-.94-5.99,2.73-27.95,5.2-33.67,4.78-11.08,19.51-16.6,29.43-8.45Z"/>
    <path class="cls-1" d="M954.33,453.09c4.09-.84,8.97-.42,12.32,2.22,14.14,11.14-11.91,37.34-25.11,26.11-9.35-7.96,2.58-26.23,12.78-28.33Z"/>
    <path class="cls-1" d="M924.96,436.2c9.57-10.21,33.61-10.87,29.22,7.73-3.85,16.29-38.61,19.33-33.1-1.11.37-1.37,2.86-5.53,3.88-6.62Z"/>
    <path class="cls-1" d="M951.33,407.15c3.54,2.95,3.81,7.83,1.83,11.77-4.96,9.86-26.74,10.82-27.54-.61-.74-10.61,18.3-17.32,25.7-11.16Z"/>
    <path class="cls-1" d="M987.25,485.5c-13.92,13.59-27.54-4.84-11.65-18.15,14.05-11.76,23.89,6.2,11.65,18.15Z"/>
  </g>
  <g>
    <path class="cls-1" d="M865.03,222.4c-7.88-6.53-8.52-19.39-.3-25.88,4.64-3.66,11.26-4.61,14.93-8.12,3.35-3.2,4.75-10.64,8.95-14.77,9.07-8.93,25.63-4.73,29.23,7.5,1.43,4.85,1.44,23.7.69,29.13-1.37,9.91-8.42,16.74-18.37,17.63-10.79.96-26.68,1.5-35.12-5.49Z"/>
    <path class="cls-1" d="M922.92,213.17c12.34-10.92,36.62,12.81,25.74,24.24-10.85,11.41-40.38-11.28-25.74-24.24Z"/>
    <path class="cls-1" d="M907.32,230.07c19.27-4.41,30.46,30.81,11.75,31.83-16.14.88-27.55-28.21-11.75-31.83Z"/>
    <path class="cls-1" d="M897.31,258.56c-2.73,3.74-8.43,3.77-12.2,1.3-10.86-7.1-12.67-27.84,2.95-24.96,8.07,1.49,13.76,17.47,9.25,23.66Z"/>
    <path class="cls-1" d="M927.93,190.17c7.57-8.29,29.81,4.85,22.7,16.21s-33.47-4.41-22.7-16.21Z"/>
  </g>
  <g>
    <path class="cls-1" d="M752.11,12.4c11.07.02,17.1,9.58,16.5,19.92-.26,4.38-4.65,22.46-6.99,26.04-1.18,1.81-6.97,6.44-8.97,7.03-7.23,2.14-30.6-2.77-36.52-7.57-11.07-8.98-7.46-23.61,5.51-28.46,3.39-1.27,8.73-1.21,11.92-3.06,2.06-1.2,3.62-5.48,5.51-7.49,3.22-3.42,8.21-6.42,13.04-6.41Z"/>
    <path class="cls-1" d="M787.32,82.57c-9.81,11.41-35.41-12.54-21.77-24.28,11.63-10,31.05,13.49,21.77,24.28Z"/>
    <path class="cls-1" d="M747.03,96.44c-10.9-9.05-7.71-31.9,6.98-26.56,18.96,6.89,12.6,42.82-6.98,26.56Z"/>
    <path class="cls-1" d="M775.92,53.55c-6.48-6.87-4.01-19.88,7.49-17.04,15.08,3.73,16.72,25.94,1.17,21.86-1.35-.36-7.76-3.87-8.66-4.82Z"/>
    <path class="cls-1" d="M724.32,69.06c14.79-4.38,18.23,23.46,7.55,25.62-12.17,2.45-18.01-22.52-7.55-25.62Z"/>
  </g>
  <g>
    <path class="cls-1" d="M570.29,104.16c3.49,4.33,5.99,25.39,5.22,31.11-1.52,11.26-14.63,19.19-24.67,11.85-4.75-3.47-7.12-12.02-9.5-14-1.72-1.44-9.25-2.73-12.09-4.41-11.17-6.62-8.69-22.63,3.08-27.63,4.94-2.1,18.25-3.54,23.74-3.24,4.28.23,11.53,2.99,14.22,6.33Z"/>
    <path class="cls-1" d="M577.61,90.86c5.95-2.86,17.54-9.79,22.41-1.92,7.49,12.1-14.5,30.45-24.1,19.61-5.08-5.74-.08-11.87,1.69-17.69-5.54,2.66-10.47,8.51-17.53,4.02-12.15-7.72,2.47-30.72,15.58-26.57,8.64,2.73,3.77,16.57,1.95,22.55Z"/>
    <path class="cls-1" d="M544.32,70.06c16.33-3.66,11.29,23.94-1.25,23.29-12.54-.65-7.47-21.33,1.25-23.29Z"/>
    <path class="cls-1" d="M591.34,112.09c21.64-4.04,10.91,21.32-3.78,19.32-12.05-1.63-7.41-17.23,3.78-19.32Z"/>
  </g>
  <g>
    <path class="cls-1" d="M730.92,548.54c-7.18-5.84-6.53-29.02-3.35-37.24,4.22-10.9,18.43-14.49,26.48-5.39,3.19,3.6,3.66,10.22,6.62,13.38s10.8,4.81,13.96,9.04c8.52,11.4-1.62,24.53-14.53,25.51-4.02.31-15.72-.55-19.75-1.23-1.96-.33-7.94-2.86-9.43-4.07Z"/>
    <path class="cls-1" d="M719.89,557.15c.35-.4,6.04-3.39,6.89-3.63,7.23-2.08,14.35,3.06,13.79,10.72-1.19,16.26-29.5,25.2-26.11,4.05.4-2.52,3.81-9.29,5.44-11.14Z"/>
    <path class="cls-1" d="M697.84,558.62c-.52-.52-1.94-4.64-2.04-5.54-1.72-15.13,25.77-25.63,28.41-9.25,1.84,11.42-18.94,22.23-26.37,14.78Z"/>
    <path class="cls-1" d="M718.27,529.52c-3.61,4.21-15.17,7.54-19.71,2.88-9.62-9.88,17.12-25.76,21.39-11.37.82,2.78.22,6.26-1.68,8.48Z"/>
    <path class="cls-1" d="M750.33,559.05c16.55-3.67,9.93,27.29-6.02,22.59-8.19-2.41-2.44-20.72,6.02-22.59Z"/>
  </g>
  <g>
    <path class="cls-1" d="M34.4.06c10.91-.85,15.96,8.12,25.64,6.74,2.49-.35,5.29-2.23,8.33-2.68,18.78-2.8,30.59,13.55,21.06,30.06-3.45,5.98-22.65,22.01-29.1,23.9-16.31,4.78-21.55-5.04-30.21-15.23-3.83-4.51-7.58-6.78-10.39-12.61C13.57,17.44,18.92,1.27,34.4.06Z"/>
    <path class="cls-1" d="M55.95,65.2c.88-.89,4.18-2.86,5.37-3.13,17.4-3.94,22.83,19.83,14.73,31.72-.84,1.24-4.94,5.5-6.14,5.85-17.07,5.09-23.82-24.5-13.96-34.45Z"/>
    <path class="cls-1" d="M22.96,93.51c-5.09-5.69-5.19-16.21-2.24-23.04,8.6-19.93,29.93-13.45,26.8,8.8-1.42,10.13-15.2,24.69-24.56,14.24Z"/>
    <path class="cls-1" d="M12.37,42.04c7.17-1.36,12.56,5.24,12.04,12.03-.41,5.37-6.05,16.12-11.54,17.54-19.2,4.97-14.84-26.85-.5-29.56Z"/>
    <path class="cls-1" d="M86.33,49.05c15.98-3.52,21.2,27.58,7.55,30.61-14.53,3.22-20.79-27.7-7.55-30.61Z"/>
  </g>
  <g>
    <path class="cls-1" d="M417.3,223.16c3.12,3.79,3.82,9.17,2.71,13.83-1.02,4.24-7.64,20.36-10.34,23.13-5.76,5.9-16.76,6.14-22.32-.22-4.41-5.04-1.85-13.62-3.98-18.28-2.45-5.36-8.44-6.65-9.53-14.53-1.52-11.01,8.95-18.54,19.16-16.14,5.1,1.2,21.15,8.36,24.31,12.2Z"/>
    <path class="cls-1" d="M440.35,202.1c4.07,4.22-1.02,13.01-4.82,16.17-14.71,12.22-30.42-4.69-13.85-15.85,5.12-3.45,14.05-5.13,18.68-.32Z"/>
    <path class="cls-1" d="M435.35,222.1c20.41-3.3,20.58,18.84,2.77,20.76-20.44,2.19-18.81-18.16-2.77-20.76Z"/>
    <path class="cls-1" d="M399.9,207.58c-6.09-7.36,7.38-21.33,16.63-16.13,10.59,5.95-7.97,26.59-16.63,16.13Z"/>
    <path class="cls-1" d="M441.35,248.12c5.03,6.17-2.03,12.03-7.72,13.25-18.58,3.96-18.75-19.41.25-16.27,1.26.21,6.89,2.32,7.47,3.02Z"/>
  </g>
  <g>
    <path class="cls-1" d="M166.3,252.55c-1.05,1.24-6.43,4.57-8.16,5.33-7.52,3.3-26.12,8.98-33.94,7.89-8.02-1.12-16.04-9.25-16.62-17.43-1.09-15.47,13.48-16.71,16.97-28.1,2.07-6.76-.59-10.82,5.06-17.87,10.1-12.61,27.22-7.45,33.82,6.18,2.14,4.41,8.15,24.44,8.21,28.87.05,3.57-3.08,12.48-5.34,15.14Z"/>
    <path class="cls-1" d="M208.26,237.2c19.9,22.61-27.9,29.68-32.42,7.93-4.12-19.85,22.38-19.34,32.42-7.93Z"/>
    <path class="cls-1" d="M193.26,284.51c-12.21,12.81-41.16-9.79-29.68-24.18,12.51-15.68,41.65,11.62,29.68,24.18Z"/>
    <path class="cls-1" d="M157.3,273.17c4.93,4.13,11.12,16.42,4.67,21.55-11.22,8.92-30.59-11.61-21.78-21.78,4.36-5.03,12.48-3.65,17.11.23Z"/>
    <path class="cls-1" d="M182.34,204.09c9.26-1.92,23.62,3.65,21.06,15.05s-33.25,8.58-29.58-7.57c.76-3.33,5.3-6.81,8.51-7.48Z"/>
  </g>
</svg>