<?xml version="1.0" encoding="UTF-8"?>
<svg id="Camada_1" data-name="Camada 1" xmlns="http://www.w3.org/2000/svg" viewBox="0 0 1205.58 628.98">
  <defs>
    <style>
      .cls-1 {
        fill: #cb5719;
      }
    </style>
  </defs>
  <g>
    <path class="cls-1" d="M1164.2.21c14.86-2.01,23.8,10.66,20.75,24.75-1.13,5.24-15.58,25.72-20.01,28.99-6.23,4.6-13.07,6.13-20.47,3.48-4.82-1.73-23.82-15.02-27-19-8.44-10.58-6.91-26.28,6.78-31.17,9.57-3.41,14.45,1.88,22.63.63,5.21-.8,10.24-6.71,17.32-7.67Z"/>
    <path class="cls-1" d="M1168.15,57.16c20.68-4.76,27.74,34.53,9.53,36.6-16.57,1.88-26.11-32.79-9.53-36.6Z"/>
    <path class="cls-1" d="M1142.94,61.46c18.09.13,16.6,35.97,2.02,37.56-20.34,2.21-20.95-37.69-2.02-37.56Z"/>
    <path class="cls-1" d="M1183.75,41.27c12.23-11.17,29.37,15.63,18.22,24.71-12.18,9.92-27.3-16.42-18.22-24.71Z"/>
    <path class="cls-1" d="M1117.2,51.14c19.52-2.88,10.78,39.11-4.72,29.25-9.82-6.25-6.92-27.53,4.72-29.25Z"/>
  </g>
  <g>
    <path class="cls-1" d="M552.06,233.58c-2.22,3.12-14.91,14.52-18.3,16.19-7.05,3.47-13.58,3.09-19.82-1.81-2.89-2.27-11.75-11.2-13.92-14.09-5.95-7.93-7.6-18.09.87-24.95,10.06-8.15,17.26,1.06,25.04,1.06,3.86,0,7.57-3.18,11.23-3.78,16.32-2.68,24.37,14.03,14.89,27.39Z"/>
    <path class="cls-1" d="M544.08,255.31c6.78,6.16,7.68,22.9-1.27,27.51-12.52,6.45-21.37-15.51-13.81-25.81,3.6-4.91,10.56-5.81,15.08-1.7Z"/>
    <path class="cls-1" d="M520.14,255.25c5.93,6.47,3.69,20.59-3.19,25.71-5.11,3.81-8.84,3.88-13.04-.98-11.51-13.31,5.2-36.75,16.23-24.73Z"/>
    <path class="cls-1" d="M494.21,240.13c15.05-1.98,9.42,27.08-4.22,24.83-8.97-1.48-7.42-23.3,4.22-24.83Z"/>
    <path class="cls-1" d="M549.75,243.27c11.13-10.15,23.85,16.99,11.66,22.16-10.78,4.57-18.6-15.83-11.66-22.16Z"/>
  </g>
  <g>
    <path class="cls-1" d="M778.1,184.29c5.61,5.59,5.92,15.53,2.54,22.37-1.43,2.9-5.53,6.5-6,10.01-.4,2.97,1.77,8.89,1.86,12.75.43,20.35-19.98,27.07-33.57,12.55-4.22-4.51-15.28-21.04-16.25-26.74-2.49-14.77,7.86-19.02,17.67-25.85,1.94-1.35,3.25-3.54,5.15-4.85,8.01-5.53,21.1-7.7,28.6-.22Z"/>
    <path class="cls-1" d="M704.24,206.28c16.1-1.73,28.1,16.92,11.59,24.56-24.14,11.17-43.18-21.15-11.59-24.56Z"/>
    <path class="cls-1" d="M725.09,183.29c7.65,8.94,1.9,19.82-9.3,20.59-13.79.95-32.15-16.5-16.71-25.79,7.21-4.33,20.74-.96,26.01,5.2Z"/>
    <path class="cls-1" d="M731.15,249.67c-5.22,6.22-22.97,7.54-26.16-1.76-5.53-16.12,30.08-20.72,28.26-3.73-.12,1.08-1.41,4.66-2.1,5.49Z"/>
    <path class="cls-1" d="M727.23,160.16c12.55-1.03,26.09,15.89,14.13,22.2-15.93,8.41-34.46-20.54-14.13-22.2Z"/>
  </g>
  <g>
    <path class="cls-1" d="M201.09,435.29c5.33,4.07,7.25,12.3,5.9,18.72-.71,3.4-4.33,8.57-4.53,11.5-.22,3.23,3.36,8.81,3.86,13.05,2.24,19.16-15.89,26.41-30.36,15.37-3-2.29-12.63-12.84-14.96-16.04-6.58-9.05-6.07-17.42,1.09-25.81,3.34-3.91,13.96-14.88,18-16.96,5.99-3.09,15.36-4.12,20.99.18Z"/>
    <path class="cls-1" d="M139.24,466.17c22.26-1.24,21.62,25.77-1.31,25.76-22.6,0-20.7-24.54,1.31-25.76Z"/>
    <path class="cls-1" d="M134.21,438.2c10.32-1.24,27.71,6.74,20.68,18.7-5.89,10.02-25.18,7.14-30.91-2-5.11-8.17,1.95-15.71,10.22-16.7Z"/>
    <path class="cls-1" d="M151.21,420.13c8.39-.94,22.23,6.33,17.1,16.19-5.6,10.77-30.61,1.6-25.11-11.12,1.12-2.6,5.33-4.77,8.01-5.07Z"/>
    <path class="cls-1" d="M166.12,492.26c12.52,13.4-24.28,27.34-24.79,9.21-.28-9.96,18.36-16.1,24.79-9.21Z"/>
  </g>
  <g>
    <path class="cls-1" d="M3.79,583.6c-7.26-8.55-3.72-22.74,7.59-25.22,4.15-.91,9.03.07,12.99-2.01,2.62-1.38,5.35-5.99,8.14-7.86,13.02-8.68,26.9,1.67,24.69,16.7-.61,4.16-5.79,18.35-8.01,21.98-2.42,3.96-7.7,8.1-12.34,8.71-6.14.81-28.87-7.36-33.07-12.31Z"/>
    <path class="cls-1" d="M69.14,615.64c-11.65,8.56-31.68-15.92-18.08-25.57,12.59-8.92,28.36,18.01,18.08,25.57Z"/>
    <path class="cls-1" d="M30.77,625.61c-5.92-5.65-9.28-21.11-.71-25.54,12.65-6.53,22.23,13.3,16.24,24.23-3.41,6.23-10.85,5.77-15.53,1.3Z"/>
    <path class="cls-1" d="M64.17,571.14c14.12-3.05,22.7,20.33,10.67,21.78-13.75,1.67-21.55-19.43-10.67-21.78Z"/>
    <path class="cls-1" d="M18.08,597.35c6.86,3.44,7.04,24.32-3.89,23.42-13.1-1.09-12.58-31.68,3.89-23.42Z"/>
  </g>
  <g>
    <path class="cls-1" d="M413.88,452.45c11.91-2.9,23.26,2.76,23.04,16.02-.14,8.09-6.88,11.1-8.24,16.23-2,7.56,2.52,12.75-1.84,21.16-5.54,10.69-19.47,10.59-27.24,2.44-3.45-3.62-13.4-20.32-14.1-24.9-1.01-6.6.51-12.86,5.44-17.43,2.24-2.08,20.18-12.84,22.93-13.51Z"/>
    <path class="cls-1" d="M380.13,491.64c-6.47,7.15-23.66,4.87-28.53-3.34-7.1-11.94,9.75-18.48,19.88-15.88,7.85,2.02,15.03,12.18,8.66,19.22Z"/>
    <path class="cls-1" d="M367.21,445.14c13.55-1.6,30.01,14.89,17.19,23.27-17.64,11.54-40.58-20.52-17.19-23.27Z"/>
    <path class="cls-1" d="M401.09,437.29c10.78,11.57-2.44,22.51-14.6,13.1-16.13-12.48,2.35-26.24,14.6-13.1Z"/>
    <path class="cls-1" d="M387.09,500.29c9.87,10.38-9.89,21.22-20.63,13.13-12.26-9.24,10.72-23.55,20.63-13.13Z"/>
  </g>
  <g>
    <path class="cls-1" d="M952.79,219.6c-3.63-4.25-4.65-11.57-3.06-16.87.69-2.29,10.02-18.23,11.71-20.29,6.7-8.14,20.55-9.19,26.02.97,4.32,8.02-.18,14,1.49,19.51,1,3.29,3.59,5.13,5.04,7.96,7.79,15.2-4.85,27.72-20.11,22.11-3.89-1.43-18.57-10.43-21.1-13.39Z"/>
    <path class="cls-1" d="M948.14,234.64c-4.5,4.03-15.58,6.51-21.05,3.15-14.99-9.19,10.06-29.71,21.89-18.88,4.64,4.25,3.51,11.84-.84,15.73Z"/>
    <path class="cls-1" d="M933.12,192.32c18.3.18,17.14,21.87-1.27,22.54-21.07.77-20-22.74,1.27-22.54Z"/>
    <path class="cls-1" d="M937.18,174.17c6.83-1.37,17.97,2.55,16.06,11.06-2.48,11.06-23.15,7.26-24.42-2.29-.53-3.96,4.84-8.07,8.36-8.77Z"/>
    <path class="cls-1" d="M963.09,247.59c-9.13,8.63-26.09,2.94-16.65-9.14,11.13-14.24,28.84-2.38,16.65,9.14Z"/>
  </g>
  <g>
    <path class="cls-1" d="M615.12,408.26c3.87,4.65,3.94,12.99,1.5,18.36-1.7,3.73-9.69,14.06-12.67,17.34-6.82,7.5-15.18,9.44-24.25,4.28-1.99-1.13-15.64-11.24-16.92-12.63-11.05-12.03-5.11-29.39,12.17-28.73,3.47.13,8.45,2.51,11.75,1.84s7.49-4.46,10.71-5.29c5.86-1.52,13.75.09,17.71,4.84Z"/>
    <path class="cls-1" d="M599.79,475.6c-5.34-5.8-7.69-22.36,1.6-25.2,19.06-5.84,23.18,29.05,8.3,30.36-2.58.23-8.18-3.3-9.9-5.16Z"/>
    <path class="cls-1" d="M575.78,482.56c-8.94-4.74-7.71-29.62,5.15-29.69,18.93-.11,13.15,39.39-5.15,29.69Z"/>
    <path class="cls-1" d="M628.09,438.3c12.37,11.48,1.26,30.56-10.67,16.89-9.7-11.12-.07-26.85,10.67-16.89Z"/>
    <path class="cls-1" d="M555.79,446.29c5.8-5.56,12.9-1.69,14.25,5.63.81,4.38-2.49,15.39-7.32,16.83-11.47,3.43-14.43-15.28-6.94-22.46Z"/>
  </g>
</svg>