<?xml version="1.0" encoding="UTF-8"?>
<svg id="Camada_1" data-name="Camada 1" xmlns="http://www.w3.org/2000/svg" viewBox="0 0 1536 1044.18">
  <path d="M1194.81,405.2v616.55c0,6.95-19.37,24.03-28.12,20.54H369.03c-10.53,4.1-28.12-15.85-28.12-23.68V405.2c-23.79,9.38-50.61,53.76-77.27,29.72-11.54-10.4-12.32-30.45-.19-40.8L747.58,32.39c10.89-7.24,19.59-17.88,33.8-11.69l495.17,381.41c6.97,17.21-4.11,37.83-21.56,40.19-17.68,2.39-44.61-27.85-60.19-37.1ZM1141.25,985.67V365.98L770.8,82.82l-376.33,278.46v624.4h169.59v-337.3c0-2.5,19.1-20.15,25.22-17.33h357.16c16.06-.32,28.2,17.61,28.2,33.02v321.61h166.61ZM921.08,687.59h-303.48v298.08h303.48v-298.08Z"/>
  <g>
    <path d="M753.67,368.27c24.29-5.25,44.07.35,58.06,22.05,4.81,7.46,6.22,15.6,11.14,22.76,9.69,14.11,30.83,20.71,38.3,34.91,18.75,35.62-9.18,79.13-45.7,82.73-13.21,1.3-23.39-3.19-35.57-3.29-24.89-.21-50.05,8.22-73.03-1.44-27.34-11.5-42.41-50.25-26.35-77.96,7.17-12.38,23.31-16.75,32.28-28.71,12.79-17.04,14.92-45.45,40.85-51.05Z"/>
    <path d="M822.11,264.72c53.77-9.9,42.62,77.4.85,88.85-47.52,13.03-48.71-80.04-.85-88.85Z"/>
    <path d="M698.95,341.39c-16.22-17.19-24.31-67.05,2.05-75.58,55.6-17.99,69.89,76.61,33.51,85.37-12.3,2.96-26.62-.32-35.56-9.79Z"/>
    <path d="M640.64,339.85c43.39-9.18,65.04,73.18,21.01,82.02-43.31,8.7-55.85-74.65-21.01-82.02Z"/>
    <path d="M890.6,339.91c44.89-9.11,36.69,88.08-8.97,83.48-38.87-3.92-28.86-75.8,8.97-83.48Z"/>
  </g>
</svg>