<?xml version="1.0" encoding="UTF-8"?>
<svg id="Camada_1" data-name="Camada 1" xmlns="http://www.w3.org/2000/svg" viewBox="0 0 1024 1042.85">
  <path d="M599.12,89.29c23.65,4.1,50.54-2.76,73.06,6.57,14.87,6.16,33.09,27.94,31.96,44.66,62.45,1.94,134.4-16.52,160.69,57.17,10.38,246.1,1.4,494.09,4.58,740.87-1.98,56.55-33.7,96.39-91.63,100.39-175.59,12.14-364.19-8.88-541.14.27-42.27-4.92-74.99-34.91-82.52-76.74l-.12-742.34c6.8-91,88.96-80.78,157.47-79.91,8.17-9.51,7.97-20.85,16.96-31.12,22.09-25.24,62.8-18.3,92.79-19.91,19.24-93.73,158.83-93.94,177.9.08ZM444.09,134.65c-18.89,3.33-56.72,0-78.13,0-.53,0-7.51,6.98-7.51,7.51v69.11c0,.53,4.63,5.29,6.05,5.96,8.85,4.14,50.65-1.8,64.71-1.58,68.44,1.04,141.84,9.39,210.34,3.28,12.08-1.08,20.77-3.07,22.54-16.52,1.23-9.32,1.05-54.85-2.93-60.47-11.69-16.48-69.26.17-88.52-10.64-14.16-7.95-9.64-34.71-21.55-50.56-20.66-27.48-74.26-22.71-83.42,12.39-4.26,16.33,1.79,37.4-21.58,41.52ZM316.39,182.73h-88.64c-1.19,0-18.19,11.91-19.62,13.44-4.81,5.14-11.12,19.79-12.01,27.05l-.05,724.37c.8,25.47,21.2,45.79,46.58,46.58,173.26-9.92,360.49,12.78,532.11,0,28.99-2.16,46.25-17.19,49.57-46.59l-.05-727.36c1.84-12.08-22.33-37.49-31.62-37.49h-88.64v46.58c0,.88-7.36,13.17-8.96,15.08-10.66,12.71-24.67,15.46-40.49,16.6-98.13,7.09-204.66-5.62-303.69-.06-11.56,1.65-34.49-19.41-34.49-28.61v-49.58Z"/>
  <path d="M448.6,331.47c2.11-12.1,11.36-17.65,22.81-19.26,9.82-1.38,84.43,2.24,89.39,5.47,9.77,6.37,4.14,28.27,4.81,37.92,1.12,16.15,5.51,32.48,3.18,49.48h76.62c15.17,0,16.17,37.89,16.67,49.44.55,12.65,2.1,70.76-16.67,70.76h-76.62v73.62c0,9.26-13.33,18.45-22.4,19.67-13.96,1.87-79.01,1.42-88.62-4.8-2.51-1.62-9.17-10-9.17-11.86v-76.62h-73.62c-9.91,0-15.89-16.8-16.67-25.4-1.41-15.54-2.45-67.69.2-81.22.98-5.02,9.56-13.58,13.46-13.58h76.62c2.71-22.18-3.68-52.57,0-73.62Z"/>
  <path d="M495.82,697.2l230.55-.46c27.75,4.35,25.34,43.38-2.76,44.96-69.65-5.81-151.24,7.56-219.42-.07-29.5-3.3-35.4-32.92-8.37-44.43Z"/>
  <path d="M495.82,832.42l230.55-.47c24.91,4.07,23.81,41.85-2.77,44.95-69.34,8.1-154.21-6-225.23-.25-22.97-3.62-26.09-37.95-2.55-44.24Z"/>
  <path d="M281.19,703.46c25.46-21.47,48.68,24.43,57.32,22.92,15.75-9.05,47.58-55.33,61.22-59.33,22.21-6.52,36.01,19.51,21.83,40.02-6.27,9.07-58.51,61.29-67.61,67.61-8.07,5.6-13.23,7.67-23.37,5.42-6.89-1.53-46.91-40.27-51.61-47.63-5.82-9.14-6.87-21.36,2.21-29.02Z"/>
  <path d="M399.68,811.34c20.06-4.53,33.58,13.73,26.31,32.41-22.09,15.43-57.52,67.42-78.86,77.58-7.64,3.64-16.26,2.06-23.33-2.34-6.42-3.99-46.38-45-48.22-51.09-4.65-15.44,8.6-28.86,24.33-27.37,13.16,1.24,25.28,22.37,36.01,30.25,4.37,0,49.47-56.22,63.76-59.44Z"/>
</svg>